<svg height="512pt" viewBox="0 -12 512 511" width="512pt" xmlns="http://www.w3.org/2000/svg"><path d="m464.746094 181.035156h-56.578125c-9.242188 0-16.734375 7.492188-16.734375 16.734375v97.34375c0-9.242187-7.492188-16.734375-16.734375-16.734375h-56.574219c-9.242188 0-16.734375 7.492188-16.734375 16.734375v67.691407c0-9.242188-7.492187-16.734376-16.734375-16.734376h-56.578125c-9.242187 0-16.734375 7.492188-16.734375 16.734376v44.628906c0-9.242188-7.492188-16.734375-16.734375-16.734375h-56.578125c-9.242188 0-16.730469 7.492187-16.730469 16.734375v41.546875c0-9.242188-7.492187-16.734375-16.734375-16.734375h-56.578125c-9.242187 0-16.734375 7.492187-16.734375 16.734375v31.765625h450.222656v-282.976563c.003907-9.242187-7.488281-16.734375-16.730468-16.734375zm0 0" fill="#ff84a7"/><path d="m121.296875 480.746094h-90.042969v-31.765625c0-9.242188 7.492188-16.734375 16.734375-16.734375h56.574219c9.242188 0 16.734375 7.492187 16.734375 16.734375zm0 0" fill="#ff84a7"/><path d="m211.34375 480.746094h-90.042969v-73.3125c0-9.242188 7.488281-16.734375 16.730469-16.734375h56.578125c9.242187 0 16.734375 7.492187 16.734375 16.734375zm0 0" fill="#5186ff"/><path d="m301.390625 480.746094h-90.046875v-117.941406c0-9.242188 7.492188-16.734376 16.734375-16.734376h56.578125c9.242188 0 16.734375 7.492188 16.734375 16.734376zm0 0" fill="#ff84a7"/><path d="m391.433594 480.746094h-90.042969v-185.632813c0-9.242187 7.492187-16.734375 16.730469-16.734375h56.578125c9.242187 0 16.734375 7.492188 16.734375 16.734375zm0 0" fill="#5186ff"/><path d="m481.480469 480.746094h-90.046875v-282.976563c0-9.242187 7.492187-16.734375 16.734375-16.734375h56.578125c9.242187 0 16.734375 7.492188 16.734375 16.734375zm0 0" fill="#ff84a7"/><path d="m481.480469 480.746094h-90.046875v-282.976563c0-9.242187 7.492187-16.734375 16.734375-16.734375h56.578125c9.242187 0 16.734375 7.492188 16.734375 16.734375zm0 0" fill="#ff84a7"/><path d="m104.199219 432.246094h-56.578125c-9.242188 0-16.734375 7.492187-16.734375 16.734375v11.253906h47.371093c9.242188 0 16.734376 7.492187 16.734376 16.734375v3.777344h25.941406v-31.765625c0-9.242188-7.492188-16.734375-16.734375-16.734375zm0 0" fill="#ef6085"/><path d="m194.242188 390.699219h-56.578126c-9.238281 0-16.730468 7.492187-16.730468 16.734375v11.253906h2.046875c34.273437 0 62.054687 27.785156 62.054687 62.058594h25.941406v-73.3125c0-9.242188-7.492187-16.734375-16.734374-16.734375zm0 0" fill="#476eea"/><path d="m284.289062 346.070312h-56.578124c-9.242188 0-16.734376 7.492188-16.734376 16.734376v11.253906h2.050782c34.269531 0 62.054687 27.785156 62.054687 62.058594v44.628906h25.941407v-117.941406c0-9.242188-7.492188-16.734376-16.734376-16.734376zm0 0" fill="#ef6085"/><path d="m374.335938 278.378906h-56.578126c-9.242187 0-16.734374 7.492188-16.734374 16.734375v11.253907h2.046874c34.273438 0 62.054688 27.78125 62.054688 62.054687v112.324219h25.941406v-185.632813c0-9.242187-7.492187-16.734375-16.730468-16.734375zm0 0" fill="#476eea"/><path d="m464.378906 181.035156h-56.578125c-9.242187 0-16.734375 7.492188-16.734375 16.734375v11.253907h2.050782c34.269531 0 62.054687 27.785156 62.054687 62.054687v209.667969h25.941406v-282.976563c0-9.242187-7.492187-16.734375-16.734375-16.734375zm0 0" fill="#ef6085"/><path d="m504.320312 488.425781h-496.640624c-4.242188 0-7.679688-3.4375-7.679688-7.679687 0-4.242188 3.4375-7.679688 7.679688-7.679688h496.640624c4.242188 0 7.679688 3.4375 7.679688 7.679688 0 4.242187-3.4375 7.679687-7.679688 7.679687zm0 0" fill="#2f5066"/><path d="m299.699219 85.171875 26.183593 59.277344 27.339844 1.746093 21.679688-20.128906-26.730469-66.820312c-5.714844-12.871094-20.867187-18.558594-33.640625-12.628906l-113.390625 53.058593c4.832031 12.082031 18.550781 17.949219 30.625 13.101563" fill="#ffb14c"/><path d="m283.722656 92.070312c-3.355468-7.601562-12.121094-11.179687-19.835937-8.105468l-54.308594 21.644531c-1.308594.523437-2.636719.917969-3.96875 1.195313 6.429687 7.039062 16.785156 9.734374 26.15625 5.972656zm0 0" fill="#fd9e28"/><path d="m348.171875 59.246094c-4.78125-10.769532-16.175781-16.507813-27.25-14.617188 2.066406 2.097656 3.796875 4.597656 5.0625 7.449219l13.757813 34.390625c7.117187 17.792969-1.785157 37.960938-19.730469 44.691406l5.871093 13.289063 49.019532-18.382813zm0 0" fill="#fd9e28"/><path d="m325.882812 144.449219-52.023437 52.773437c-4.925781 5-5.835937 12.707032-2.203125 18.714844l37.765625 62.441406h18.382813l-21.320313-53.515625c-.730469-1.832031-.46875-3.914062.691406-5.511719l67.726563-93.285156zm0 0" fill="#38627c"/><path d="m325.882812 144.449219 49.019532-18.382813 5.125 11.128906c6.175781 13.410157 3.710937 29.21875-6.257813 40.109376l-23.898437 26.117187c-1.269532 1.390625-1.566406 3.414063-.746094 5.109375l30.59375 69.847656h-18.382812l-49.203126-66.902344c-2.492187-3.054687-3.332031-7.136718-2.25-10.929687zm0 0" fill="#4f7693"/><path d="m317.632812 9.007812 7.609376 15.871094c3.574218 7.457032.425781 16.402344-7.03125 19.976563l-6.28125 3.011719c-7.460938 3.574218-16.402344.425781-19.980469-7.03125l-7.605469-15.875c-3.574219-7.457032-.425781-16.398438 7.03125-19.976563l6.28125-3.007813c7.460938-3.578124 16.402344-.429687 19.976562 7.03125zm0 0" fill="#fecbaa"/><path d="m158.214844 198.792969c13.796875-8.382813 20.359375-24.898438 16.078125-40.464844l-98.109375 53.285156c-8.753906 4.753907-14.203125 13.917969-14.203125 23.878907v73.953124l26.5.140626 21.3125-19.734376-.953125-61.066406" fill="#69d998"/><path d="m174.296875 158.328125-15.980469 8.675781c-2.347656 8.777344-7.980468 16.585938-16.144531 21.546875l-25.554687 15.527344c-14.753907 8.964844-23.652344 25.078125-23.382813 42.339844.3125 20.019531-11.671875 38.1875-30.199219 45.78125l-1.054687.429687v16.816406l47.8125-19.597656-.949219-61.058594 49.371094-30c13.796875-8.378906 20.359375-24.894531 16.082031-40.460937zm0 0" fill="#3dc5a1"/><path d="m109.792969 289.851562 44.558593 30.050782c5.699219 3.84375 8.753907 10.558594 7.910157 17.378906l-6.609375 53.417969h-17.242188l-4.507812-45.921875c-.273438-2.777344-2.03125-5.1875-4.59375-6.292969l-67.328125-29.039063zm0 0" fill="#38627c"/><path d="m61.980469 309.445312 13.503906 54.515626c.847656 3.425781.410156 7.039062-1.230469 10.164062l-30.5625 58.121094h18.289063l46.945312-54.652344c2.859375-3.328125 4.347657-7.621094 4.15625-12.007812l-3.289062-75.734376zm0 0" fill="#4f7693"/><path d="m86.777344 169.253906 8.023437 15.667969c3.769531 7.359375.859375 16.386719-6.503906 20.15625l-6.199219 3.175781c-7.363281 3.769532-16.386718.859375-20.15625-6.503906l-8.023437-15.664062c-3.769531-7.363282-.859375-16.386719 6.5-20.15625l6.203125-3.175782c7.359375-3.769531 16.386718-.859375 20.15625 6.5zm0 0" fill="#fecbaa"/></svg>